<?xml version="1.0" encoding="utf-8"?>
<!-- Generator: Adobe Illustrator 26.0.0, SVG Export Plug-In . SVG Version: 6.00 Build 0)  -->
<svg version="1.1" id="Camada_1" xmlns:serif="http://www.serif.com/"
	 xmlns="http://www.w3.org/2000/svg" xmlns:xlink="http://www.w3.org/1999/xlink" x="0px" y="0px" viewBox="0 0 456 456"
	 style="enable-background:new 0 0 456 456;" xml:space="preserve">
<style type="text/css">
	.st0{fill:url(#SVGID_1_);}
</style>
<g>
	<g>
		<path d="M290.5,185.8c-15.9-0.3-30.7,4.1-44.5,11.7c-4.6,2.5-5.4,2.5-8.3-1.9c-14-20.8-32-37.2-54.3-48.8
			c-13.2-6.9-26.9-12.5-42.4-11.8c-9.6,0.4-11.1,1.9-11.8,11.3c-1.3,16.4,3.4,31.8,8.8,47c6.5,18.7,15.3,36.6,24.5,54
			c7.8,14.5,20.4,23.6,34.8,30.6c4.3,2.2,8.8,4.1,13.1,5.6c3.6,1.3,5.5,3.7,5.9,7.5c0.8,7.1,1.5,14.3,2.2,21.4
			c0.1,1.3,0.1,2.7,0.4,4.1c0.8,3.1,2.8,4.5,5.5,4.5c2.7-0.3,4.5-2,4.5-5.2c0-4.3-0.1-8.5-0.5-12.7c-0.4-4.7-1.1-9.6-1.9-14.3
			c-0.5-3.1,0.5-5.1,2.5-7.3c6.4-6.8,13.9-11.5,22.8-14.1c8.2-2.4,14.6-7.8,21-13.4c12.1-10.8,24.8-20.9,36.8-31.8
			c5.5-5,10.2-11,14.9-16.8c3.6-4.6,3.1-6.6-1.5-10.2c-7.5-6-16.2-8.7-25.6-9.3C295.2,185.7,292.8,185.8,290.5,185.8z M221.8,273.6
			c-0.9-2-1.7-3.1-1.9-4.5c-1.7-5.5-2.9-11-4.6-16.3c-0.9-2.8-0.8-5.5,0.6-7.9c4.8-9.3,9.7-18.5,14.4-27.6c0.8-1.5,2.2-2.9,3.8-5
			c1.1,2.3,2.2,3.7,2.7,5.2c3.4,8.3,5.1,17.1,5.2,26c0,3.7-1.1,7.8-2.8,11.2C235.4,262.4,228.8,267.9,221.8,273.6z M212.4,182.3
			c6.6,6.2,11.3,12.6,16.1,19.1c2.2,3.1,2,5.6,0.1,8.8c-5.5,9-10.3,18.5-15.5,27.6c-0.5,0.8-1.1,1.7-1.7,2.5
			c-0.8-0.6-1.1-0.9-1.3-1.1c-3.4-7.4-6.9-14.9-10.3-22.2c-1.1-2.4-0.8-4.5,0.3-6.9c3.2-7.1,6.4-14.4,9.6-21.5
			C210.2,186.6,211.1,184.9,212.4,182.3z M204.7,242c-1.1-0.1-1.7,0-2.2-0.3c-11.1-3.1-22-6.1-33-9c-2.5-0.8-4.1-2.2-5.1-4.5
			c-2.5-5.7-5.4-11.5-7.9-17.2c-0.4-1-0.5-2.2-0.9-3.6c1.7,0,2.9-0.3,4.1,0c10.4,2.4,20.9,5,31.2,7.6c1.4,0.4,3.1,1.9,3.6,3.3
			c3.4,7,6.6,14.1,9.9,21.3C204.7,240.2,204.6,240.9,204.7,242z M195.1,206.5c-1.4-1.8-2.2-2.7-2.7-3.7c-4.1-5.9-7.9-12-12-17.8
			c-2.3-3.6-6.1-6.9-6.6-10.7c-0.6-3.8,1.9-8.2,3.1-12.1c0.3-0.8,0.4-1.3,0.8-1.9c1.3-2.9,2.4-3.6,5.1-1.7
			c7.6,5.2,15,10.7,22.4,16.2c2.8,2.2,2.8,3.7,1.1,7.3c-2.5,6.1-5.5,12.1-8.2,18.2C197.3,202,196.5,203.8,195.1,206.5z M188.6,207.4
			c-2.3,0-3.3,0.1-4.3,0c-9.7-2-19.4-4.1-29-6c-2.3-0.5-3.6-1.7-4.3-3.8c-1.9-5.4-3.8-10.6-5.6-15.9c-1.1-3.7-0.4-4.7,3.3-4.6
			c2.9,0,5.9,0.3,8.8,0.1c7.4-0.5,13,2.2,16.9,8.3c2.2,3.3,4.3,6.5,6.5,9.8C183.2,199,185.5,202.8,188.6,207.4z M171.2,239
			c7.5-0.3,27.8,6.6,34.9,10.3c2.4,1.1,3.3,3.3,3.9,5.6c1.1,4.1,2.3,8.3,3.6,12.2c0.5,1.7,1,3.4,1.7,5.4
			C200.5,272.6,173.6,252.1,171.2,239z M287.4,232.7c-3.6,4.8-10.8,11.5-14.9,13c-2.5,1-5.6,1.3-8.4,1.5c-2.7,0.1-5.5-0.6-8.2-0.8
			c-2.3-0.1-3.6-1-3.6-3.3c0-1.3,0-2.7,0.3-4.1c1.1-6.4,6.5-12.1,11.6-12C272.2,227.4,279.9,229,287.4,232.7z M286.6,191.8
			c-1,4.1-1.9,7.8-2.7,11.2c-0.8,3.1-2.3,5.1-5.1,6.6c-3.6,1.9-7.1,4.1-10.7,6c-0.9,0.5-2,0.8-4.1,1.3c1-6.6,1.7-12.6,2.5-18.3
			c0.4-2.5,2-4.8,4.7-5.5C276.1,191.7,280.7,190.8,286.6,191.8z M251.7,227.2c-2.4-6.6-5-13-7.3-19.6c-0.3-0.9,0.3-2.4,0.8-3.2
			c1.9-2.4,11.6-6.5,15.4-6.6c-0.8,7.6-1.3,15.3-2.5,22.8C257.7,223.7,255.6,226.3,251.7,227.2z M304,219.1
			c-4.5,7.4-9.2,9.3-16.8,7.4c-4.6-1.1-9.3-2.4-13.9-3.6c-0.9-0.3-1.7-0.5-2.7-0.9C277.2,211.7,296.5,210.3,304,219.1z M147,147
			c0.1-0.4,0.3-0.8,0.4-1.1c8.3,1,16.3,3.1,23.6,7.1c0.9,0.5,1.8,2,1.7,2.8c-0.8,4.5-2.2,8.8-4.7,13
			C160.7,161.3,153.9,154.1,147,147z M140.1,149.8c6.4,3.6,19.6,17.5,20.9,21.5c-5.5,0-10.8,0.1-16.2-0.1c-1,0-2.5-1.3-2.9-2.3
			C140.4,162.9,139.1,156.8,140.1,149.8z M290.6,203.9c-0.5-3.6-0.5-3.7,1.1-8.5c1.4-3.9,2-4.7,5.9-4.1c5.2,0.9,10.2,2.3,15.4,3.7
			c1.1,0.3,2.2,1.4,3.6,2.4C307.5,199.9,299.4,201.8,290.6,203.9z M297.1,209c0-0.5,0-0.9,0-1.4c5.9-1.4,11.7-2.9,17.6-4.1
			c0.8-0.1,2.2,0.5,2.5,1.1c0.4,0.6,0.3,2.2-0.3,2.7c-1.5,1.8-3.3,3.3-5,5.1c-1.5,1.7-3.1,1.9-5,1C303.6,212,300.4,210.6,297.1,209z
			 M264.4,253c-3.3,4.3-9.3,7.9-15.5,9.3C246.3,254.8,254.7,250.2,264.4,253z"/>
		
			<linearGradient id="SVGID_1_" gradientUnits="userSpaceOnUse" x1="-983.4401" y1="1017.725" x2="-805.7795" y2="1017.725" gradientTransform="matrix(-1 0 0 1 -666 -808.0001)">
			<stop  offset="0" style="stop-color:#347631"/>
			<stop  offset="1" style="stop-color:#93C35C"/>
		</linearGradient>
		<path class="st0" d="M221.8,273.6c7.3-5.7,13.6-11.1,17.5-18.7c1.7-3.4,2.8-7.5,2.8-11.2c-0.1-8.8-1.8-17.7-5.2-26
			c-0.6-1.5-1.5-2.9-2.7-5.2c-1.7,2.2-2.9,3.6-3.8,5c-5,9.2-9.7,18.3-14.4,27.6c-1.3,2.5-1.5,5.1-0.6,7.9c1.7,5.5,3.1,10.8,4.6,16.3
			C220.1,270.6,220.8,271.6,221.8,273.6z M228.4,201.4c2.2,3.1,2,5.6,0.1,8.8c-5.5,9-10.3,18.5-15.5,27.6c-0.5,0.8-1.1,1.7-1.7,2.5
			c-0.8-0.6-1.1-0.9-1.3-1.1c-3.4-7.4-6.9-14.9-10.3-22.2c-1.1-2.4-0.8-4.5,0.3-6.9c3.2-7.1,6.4-14.4,9.6-21.5
			c0.8-1.8,1.8-3.6,3.1-6.4C219,188.5,223.8,194.8,228.4,201.4z M202.4,241.8c-11.1-3.1-22-6.1-33-9c-2.5-0.8-4.1-2.2-5.1-4.5
			c-2.5-5.7-5.4-11.5-7.9-17.2c-0.4-1-0.5-2.2-0.9-3.6c1.7,0,2.9-0.3,4.1,0c10.4,2.4,20.9,5,31.2,7.6c1.4,0.4,3.1,1.9,3.6,3.3
			c3.4,7,6.6,14.1,9.9,21.3c0.3,0.5,0.1,1.1,0.3,2.3C203.5,241.9,202.9,241.9,202.4,241.8z M192.4,202.8c-4.1-5.9-7.9-12-12-17.8
			c-2.3-3.6-6.1-6.9-6.6-10.7c-0.6-3.8,1.9-8.2,3.1-12.1c0.3-0.8,0.4-1.3,0.8-1.9c1.3-2.9,2.4-3.6,5.1-1.7
			c7.6,5.2,15,10.7,22.4,16.2c2.8,2.2,2.8,3.7,1.1,7.3c-2.5,6.1-5.5,12.1-8.2,18.2c-0.8,1.8-1.7,3.6-3.1,6.4
			C193.8,204.7,192.9,203.8,192.4,202.8z M184.4,207.2c-9.7-2-19.4-4.1-29-6c-2.3-0.5-3.6-1.7-4.3-3.8c-1.9-5.4-3.8-10.6-5.6-15.9
			c-1.1-3.7-0.4-4.7,3.3-4.6c2.9,0,5.9,0.3,8.8,0.1c7.4-0.5,13,2.2,16.9,8.3c2.2,3.3,4.3,6.5,6.5,9.8c2.4,3.7,4.8,7.4,7.8,12.1
			C186.3,207.4,185.2,207.5,184.4,207.2z M206.1,249.3c2.4,1.1,3.3,3.3,3.9,5.6c1.1,4.1,2.3,8.3,3.6,12.2c0.5,1.7,1,3.4,1.7,5.4
			c-14.6,0.1-41.5-20.6-43.9-33.6C178.7,238.7,199,245.7,206.1,249.3z M272.5,245.7c-2.5,1-5.6,1.3-8.4,1.5
			c-2.7,0.1-5.5-0.6-8.2-0.8c-2.3-0.1-3.6-1-3.6-3.3c0-1.3,0-2.7,0.3-4.1c1.1-6.4,6.5-12.1,11.6-12c7.8,0.3,15.4,1.9,23.1,5.6
			C284,237.6,276.6,244.2,272.5,245.7z M284,203c-0.8,3.1-2.3,5.1-5.1,6.6c-3.6,1.9-7.1,4.1-10.7,6c-0.9,0.5-2,0.8-4.1,1.3
			c1-6.6,1.7-12.6,2.5-18.3c0.4-2.5,2-4.8,4.7-5.5c4.5-1.3,9.3-2.2,15.2-1.1C285.8,195.9,284.7,199.5,284,203z M244.5,207.5
			c-0.3-0.9,0.3-2.4,0.8-3.2c1.9-2.4,11.6-6.5,15.4-6.6c-0.8,7.6-1.3,15.3-2.5,22.8c-0.5,3.2-2.7,5.7-6.6,6.6
			C249.2,220.6,246.8,214.1,244.5,207.5z M287.2,226.3c-4.6-1.1-9.3-2.4-13.9-3.6c-0.9-0.3-1.7-0.5-2.7-0.9
			c6.6-10.3,25.9-11.7,33.4-2.9C299.5,226.3,294.8,228.4,287.2,226.3z M147.4,145.8c8.3,1,16.3,3.1,23.6,7.1c0.9,0.5,1.8,2,1.7,2.8
			c-0.8,4.5-2.2,8.8-4.7,13c-7.4-7.6-14.1-14.6-20.9-21.8C147.3,146.6,147.4,146.2,147.4,145.8z M161,171.3
			c-5.5,0-10.8,0.1-16.2-0.1c-1,0-2.5-1.3-2.9-2.3c-1.5-6-2.8-12.1-1.8-19.1C146.5,153.5,159.8,167.2,161,171.3z M291.9,195.4
			c1.4-3.9,2-4.7,5.9-4.1c5.2,0.9,10.2,2.3,15.4,3.7c1.1,0.3,2.2,1.4,3.6,2.4c-9,2.2-17.3,4.2-25.9,6.4
			C290.1,200.4,290.2,200.1,291.9,195.4z M297.1,207.6c5.9-1.4,11.7-2.9,17.6-4.1c0.8-0.1,2.2,0.5,2.5,1.1c0.4,0.6,0.3,2.2-0.3,2.7
			c-1.5,1.8-3.3,3.3-5,5.1c-1.5,1.7-3.1,1.9-5,1c-3.2-1.5-6.5-2.9-9.7-4.5C297.1,208.6,297.1,208.1,297.1,207.6z M248.8,262.4
			c-2.4-7.8,5.9-12.2,15.5-9.3C261,257.3,254.9,261,248.8,262.4z"/>
	</g>
</g>
</svg>
