<?xml version="1.0" encoding="utf-8"?>
<!-- Generator: Adobe Illustrator 26.0.0, SVG Export Plug-In . SVG Version: 6.00 Build 0)  -->
<svg version="1.1" id="Camada_1" xmlns="http://www.w3.org/2000/svg" xmlns:xlink="http://www.w3.org/1999/xlink" x="0px" y="0px"
	 viewBox="0 0 600 600" style="enable-background:new 0 0 600 600;" xml:space="preserve">
<style type="text/css">
	.st0{fill:#4E4D4D;}
	.st1{fill:#FFFFFF;}
</style>
<g>
	<circle class="st0" cx="300" cy="300" r="290"/>
	<g>
		<path class="st1" d="M404.8,142.1c4.1,2.2,8.4,3.9,12.2,6.6c6.4,4.5,10.3,11,10.6,18.9c0.5,10.8,0.7,21.7,0.7,32.6
			c0.1,37.1,0,74.1,0,111.2c0,1.3,0,2.6,0,4.5c-2.5-1.5-4.5-3.1-6.6-4c-5.2-2.2-10.5-4.1-15.7-6.3c-0.8-0.4-1.4-1.6-1.8-2.5
			c-0.3-0.6-0.1-1.5-0.1-2.3c0-41.7,0-83.5,0-125.2c0-3.1,0.1-6.6-3.4-8.3c-0.9-0.5-2-0.8-3-0.8c-69.2,0-138.4,0-207.6,0
			c-3,0-5.4,2.2-5.7,5.3c-0.1,1,0,2,0,2.9c0,85.2,0,170.4-0.1,255.7c0,4.6,1.7,6.7,7.2,7.4c0.8,0.1,1.5,0,2.3,0
			c69.9,0,139.7,0,209.6,0c1.5,0,3-0.6,4.4-0.5c1.6,0.2,3.4,0.5,4.6,1.5c2.1,1.6,3.9,3.8,5.8,5.7c3.6,3.5,3.5,3.6,0.8,8.1
			c-4,6.8-10.3,9.4-17.8,9.4c-65.5,0.1-131,0-196.5,0c-5.1,0-10.3,0.2-15.4,0c-14.7-0.7-25.6-9.5-29.2-24.3
			c-0.2-0.8-0.1-1.7-0.1-2.6c0-88.6-0.1-177.2,0.1-265.8c0-7.7,3.8-14.1,9.6-19.5c4.1-3.8,9.1-5.3,13.9-7.5
			C257.4,142.1,331.1,142.1,404.8,142.1z"/>
		<path class="st1" d="M466.2,476.9c-0.2-0.3-0.3-0.6-0.5-0.8c-19.3-19.2-38.5-38.5-57.9-57.8c-14.6,7.6-29.8,8.7-45.2,3
			c-10.6-3.9-19.1-10.8-25.1-20.2c-14.4-22.5-11-52,10.2-70.1c17.9-15.2,44.7-17,64.9-2.7c21.7,15.3,29.1,44.3,15.6,69.6
			c1.8,1.7,3.8,3.4,5.6,5.2c16.8,16.8,33.6,33.6,50.4,50.4c3.8,3.8,4,3-0.1,7.2c-5.3,5.4-10.7,10.9-16,16.3
			C467.5,476.9,466.9,476.9,466.2,476.9z M351.1,371.9c-0.1,17,13.6,29.9,29.3,30.4c21,0.7,32.7-14.8,32.6-30.8
			c-0.1-17.6-13.7-29.7-29.3-30.6C365.2,339.7,350.6,355.4,351.1,371.9z"/>
		<path class="st1" d="M354.9,215.5c0,8.2,0,16.3,0,24.4c-49.8,0-99.4,0-149.3,0c0-8,0-16.1,0-24.4
			C255.2,215.5,304.9,215.5,354.9,215.5z"/>
		<path class="st1" d="M205.5,307.9c0-8.2,0-16.3,0-24.5c49.8,0,99.4,0,149.3,0c0,8,0,16.1,0,24.5
			C305.1,307.9,255.4,307.9,205.5,307.9z"/>
	</g>
</g>
</svg>
