<?xml version="1.0" encoding="utf-8"?>
<!-- Generator: Adobe Illustrator 26.0.0, SVG Export Plug-In . SVG Version: 6.00 Build 0)  -->
<svg version="1.1" id="Camada_1" xmlns="http://www.w3.org/2000/svg" xmlns:xlink="http://www.w3.org/1999/xlink" x="0px" y="0px"
	 viewBox="0 0 600 600" style="enable-background:new 0 0 600 600;" xml:space="preserve">
<style type="text/css">
	.st0{fill:#4E4D4D;}
	.st1{fill:#FFFFFF;}
	.st2{fill-rule:evenodd;clip-rule:evenodd;fill:#93C35C;stroke:#FFFFFF;stroke-width:3;stroke-miterlimit:10;}
	.st3{fill:url(#SVGID_1_);}
	.st4{fill:url(#SVGID_00000072995054046835831040000017983670864856467608_);}
	.st5{fill:url(#SVGID_00000066488907085403489450000013815936028991990925_);}
</style>
<g>
	<path class="st1" d="M275.1,589.1c-4.3-0.8-8.5-1.8-12.8-2.2c-21.6-2.3-42.2-8.2-62.4-15.8c-25.7-9.7-49.7-22.8-70.9-40.1
		c-14.4-11.7-27.4-25.4-40.3-38.8c-15.8-16.3-27.6-35.6-37.7-55.8C38.4,411.7,29,385.7,25.6,358c-2.1-17.3-4.6-34.8-4.3-52.1
		c0.6-34.5,7.1-68.1,20.2-100.4c10.4-25.5,24.6-48.7,41.2-70.4c2.9-3.8,6.4-7.3,9.7-10.9c13.9-15,28.7-29.2,45.5-40.8
		c17.7-12.2,36.2-23.4,56.7-30.6c12.4-4.4,26.1,5.3,26.2,18.2c0.2,22.8,0.2,45.5,0,68.3c-0.1,9.3-5.9,15.1-13.5,19.6
		c-25.5,15.2-45.4,36.1-60.7,61.4c-12.7,20.9-20.3,43.7-23.8,67.8c-2.5,17.8-1.3,35.5,1.7,53.3c3.2,18.6,9.2,36,18,52.5
		c10.6,19.8,24.4,36.9,41.4,51.8c23.7,20.7,51.1,33.3,81.4,40.2c7.2,1.6,14.7,2.2,22,2.6c18.3,1,36.6,0.1,54.5-4.5
		c24.2-6.2,46.4-16.6,66.2-31.9c23.6-18.1,41.4-40.7,53.9-67.6c7.2-15.6,12.3-32,14.1-49.1c1.1-10,2.5-20.1,2.1-30
		c-0.9-23.8-6-46.7-16-68.5c-10.2-22.5-24.4-42-42.8-58.3c-8.8-7.8-18.7-14.4-28.5-20.9c-7.7-5.1-12.2-11.3-12-21
		c0.3-21.3,0.3-42.5,0-63.8c-0.2-15.7,15.6-25.3,29.3-19.4c24.6,10.6,47.6,23.8,68.1,40.8c26.6,22.1,49.2,47.9,66.2,78.4
		c13,23.1,22.9,47.4,28.5,73.3c2.5,11.3,4.2,22.8,5.5,34.4c1.3,11.5,2.3,23,2.2,34.5c-0.1,19.9-2.9,39.4-7.3,58.9
		c-5.4,23.9-13.9,46.5-25.3,68.1c-9.3,17.7-20.5,34.2-33.6,49.3c-16.9,19.5-35.7,37-57.1,51.4c-27.5,18.5-57.5,31.4-89.5,39.3
		c-12.7,3.1-25.9,4.1-38.8,6.1c-0.8,0.1-1.5,0.7-2.3,1.1C308.2,589.1,291.7,589.1,275.1,589.1z"/>
	<path class="st1" d="M310.1,10.9c8.4,3,16.6,6.2,23.5,12.3c8.6,7.5,13.9,16.7,15.8,27.7c1.3,7.5,1.2,15.2,1.3,22.9
		c0.1,53,0.2,106.1,0,159.1c-0.1,26.8-16.1,45.8-41.8,51c-14.5,2.9-28.6-0.6-40.8-10.4c-13.5-10.8-18.9-25-19-41.7
		c-0.1-55.9,0.1-111.7-0.1-167.6c-0.1-24.5,12.8-44.6,37.3-52c0.8-0.2,1.5-0.8,2.3-1.2C295.8,10.9,302.9,10.9,310.1,10.9z"/>
</g>
</svg>
