<?xml version="1.0" encoding="utf-8"?>
<!-- Generator: Adobe Illustrator 26.0.0, SVG Export Plug-In . SVG Version: 6.00 Build 0)  -->
<svg version="1.1" id="Camada_1" xmlns="http://www.w3.org/2000/svg" xmlns:xlink="http://www.w3.org/1999/xlink" x="0px" y="0px"
	 viewBox="0 0 600 600" style="enable-background:new 0 0 600 600;" xml:space="preserve">
<style type="text/css">
	.st0{fill-rule:evenodd;clip-rule:evenodd;fill:#93C35C;}
	.st1{fill:#FFFFFF;}
</style>
<g>
	<g>
		<ellipse class="st0" cx="300" cy="300" rx="292" ry="291.1"/>
		<path class="st1" d="M300,10.9c159.9,0,290,129.7,290,289.1S459.9,589.1,300,589.1S10,459.5,10,300S140.1,10.9,300,10.9 M300,6.9
			C137.9,6.9,6,138.4,6,300s131.9,293.1,294,293.1S594,461.6,594,300S462.1,6.9,300,6.9L300,6.9z"/>
	</g>
	<g>
		<path class="st1" d="M300.5,444.6c-31.3,0-62.6,0.1-94,0c-19.5-0.1-28.2-7.9-28.2-25.5c-0.1-46.4-0.1-92.9,0-139.3
			c0.1-17.9,8.7-25.9,27.8-25.9c62.6-0.1,125.3-0.1,187.9,0c18.6,0,27.5,7.9,27.6,25c0.2,46.8,0.2,93.6,0,140.4
			c-0.1,17.8-8.6,25.3-28.3,25.4C362.4,444.7,331.5,444.6,300.5,444.6z M326.5,334.7c-0.1-14.1-7.7-23.5-18.9-26.6
			c-10.5-3-22.4,0.8-29.1,9.2c-6.8,8.6-7.8,21.5,0.5,28.8c8.2,7.2,8.6,15.2,8.4,24.2c-0.3,15.4,3.7,21.9,13.1,20.9
			c14-1.5,12.4-11.8,12.3-20.6c-0.1-9-0.7-17.4,8.3-24.4C324.9,343.2,325.6,336.8,326.5,334.7z"/>
		<path class="st1" d="M384.2,235.3c-32.7,3-32.7,3-33-26.7c-0.2-24.6-14.3-42.6-38-48.7c-21-5.5-45.3,2-55.7,20.4
			c-5.8,10.3-7.5,23.2-8.4,35.1c-1.7,23.8,3.8,20.5-23.7,20.8c-2.7,0-5.4-0.4-8-0.5C202.9,167,249.9,124.2,307.7,128
			c39.1,2.5,73.3,33.2,76.2,69.3C385.1,209.7,384.2,222.2,384.2,235.3z"/>
	</g>
</g>
</svg>
