<?xml version="1.0" encoding="utf-8"?>
<!-- Generator: Adobe Illustrator 26.0.0, SVG Export Plug-In . SVG Version: 6.00 Build 0)  -->
<svg version="1.1" id="Camada_1" xmlns="http://www.w3.org/2000/svg" xmlns:xlink="http://www.w3.org/1999/xlink" x="0px" y="0px"
	 viewBox="0 0 600 600" style="enable-background:new 0 0 600 600;" xml:space="preserve">
<style type="text/css">
	.st0{fill:#FFFFFF;}
	.st1{fill:url(#SVGID_1_);}
</style>
<g>
	<g>
		<path class="st0" d="M100.3,554.4c0,8.2,1.7,13.5,5,15.8s10.5,3.5,21.5,3.5c16.3,0,29.1-4.5,38.3-13.5c9.2-9,14.6-22.3,16.2-39.9
			h12.9l-3.7,65.1H39v-11.7c8.3-0.7,13.7-2.3,16.1-4.6c2.4-2.3,3.7-7.2,3.7-14.7V448.7c0-7.5-1.2-12.4-3.7-14.7
			c-2.4-2.3-7.8-3.9-16.1-4.6v-11.7h80.9v11.7c-8.2,0.7-13.5,2.2-15.9,4.4c-2.4,2.3-3.7,7.2-3.7,14.9L100.3,554.4L100.3,554.4z"/>
		<path class="st0" d="M317.5,523.5h-72.4c-0.1,1.1-0.1,2.2-0.2,3.4c0,1.2-0.1,3-0.1,5.3c0,15.1,2.1,26.3,6.3,33.4
			c4.2,7.2,10.7,10.7,19.7,10.7c6.9,0,13.3-2.3,19.3-6.9c6-4.6,11.2-11.2,15.5-19.7l10.8,3.8c-4.7,11.8-11.6,20.7-20.5,26.6
			c-9,5.9-20.1,8.9-33.2,8.9c-7.7,0-14.9-1.3-21.7-4c-6.7-2.7-12.7-6.6-18-11.6c-6.1-6-10.8-13-14-21.2c-3.2-8.1-4.8-17-4.8-26.7
			c0-18.9,5.4-34.2,16.3-46s24.9-17.7,42.2-17.7c16.5,0,29.7,5.5,39.8,16.4c10.1,10.9,15.1,25.5,15.1,43.7L317.5,523.5L317.5,523.5z
			 M244.8,513h34.7v-2.1c0-13.9-1.3-23.7-4-29.6s-7.1-8.8-13.3-8.8c-6.1,0-10.4,2.9-13,8.7C246.7,486.9,245.2,497.5,244.8,513z"/>
		<path class="st0" d="M404.7,569.8c-6.8,6.4-13.6,11.2-20.5,14.4c-6.9,3.3-13.7,4.9-20.5,4.9c-9.4,0-17.1-2.9-23.1-8.6
			c-6.1-5.8-9.1-13.1-9.1-22c0-12.6,5.8-22.4,17.5-29.4c11.6-7,29.4-11.5,53.4-13.4v-16.5c0-10.4-1.6-17.5-4.8-21.4
			c-3.2-3.9-8.8-5.8-16.7-5.8c-3.5,0-6.6,0.5-9.2,1.6c-2.6,1.1-3.9,2.2-3.9,3.4c0,0.1,0.2,0.6,0.7,1.3c0.2,0.4,0.4,0.6,0.4,0.8
			l3.3,5.1c0.7,1,1.2,2.3,1.6,3.9c0.4,1.5,0.6,3.1,0.6,4.7c0,4.5-1.7,8.2-5.1,11.2s-7.8,4.4-13.1,4.4c-5.5,0-10-1.6-13.5-4.7
			c-3.4-3.1-5.2-7.3-5.2-12.3c0-8.5,4.5-15.6,13.6-21.1s20.8-8.3,35.3-8.3c17.5,0,30.4,3.7,38.7,11c8.3,7.3,12.5,18.8,12.5,34.4
			v57.9c0,2.1,0.4,3.7,1.1,4.7s1.9,1.5,3.5,1.5c1,0,2.5-0.4,4.4-1.2s3.2-1.2,3.9-1.2c0.9,0,1.7,0.4,2.4,1.2c0.7,0.8,1.1,1.7,1.1,2.6
			c0,3.3-2.8,6.7-8.3,10.1c-5.5,3.4-11.5,5.2-17.7,5.2c-5.8,0-10.5-1.5-14.3-4.4C409.9,580.7,406.9,576.1,404.7,569.8z M402.4,525.4
			c-11.9,1.7-20.8,4.8-26.6,9.4c-5.8,4.5-8.8,10.5-8.8,17.9c0,5.1,1.4,9.1,4.3,12c2.9,2.9,6.8,4.4,11.8,4.4c6.7,0,11.7-2.6,14.9-7.9
			c3.2-5.3,4.8-13.5,4.8-24.5c0-1.3,0-2.7-0.1-4.2C402.7,531,402.6,528.7,402.4,525.4z"/>
		<path class="st0" d="M510.9,558.7c0,6,0.9,10.2,2.8,12.6c1.9,2.4,5,3.6,9.4,3.6h7.1v10.6h-66.9v-10.6c4.8-0.7,8-2.1,9.6-4.2
			c1.6-2,2.4-6,2.4-12v-72.9h-13.8v-11h13.8c0-0.6,0-1.5-0.1-2.8c-0.1-1.2-0.1-2.2-0.1-2.8c0-19.5,4.5-34.6,13.4-45
			c8.9-10.5,21.7-15.7,38.3-15.7c10.2,0,18.4,2.4,24.7,7.2c6.3,4.8,9.4,11.1,9.4,18.8c0,5.1-1.6,9.1-4.8,12.1s-7.5,4.4-13,4.4
			c-4.7,0-8.4-1.2-11-3.7c-2.6-2.5-3.9-6-3.9-10.6c0-1.6,0.2-3.2,0.7-4.6s1.1-2.6,2-3.6l2.6-3c0.4-0.5,0.7-1,0.8-1.5
			c0.2-0.5,0.3-1,0.3-1.5c0-1-0.7-2-2.1-2.9c-1.4-0.9-3.1-1.3-4.9-1.3c-5.8,0-10,2.5-12.6,7.6c-2.7,5.1-4,13.2-4,24.4v24.4h28.2v11
			h-28.3V558.7z"/>
	</g>
	<g>
		<path d="M433.7,116.7c-33.2-0.5-63.9,8.5-92.7,24.5c-9.7,5.4-11,5.2-17.2-3.9C294.5,94.1,257,59.9,210.7,35.6
			C183.1,21.1,154.6,9.7,122.4,11c-19.8,0.8-22.9,3.9-24.6,23.7C95,69,105,100.9,116,132.5c13.6,39,31.7,76.1,51,112.5
			c16.1,30.3,42.5,49.2,72.6,63.5c9,4.3,18.1,8.3,27.4,11.7c7.5,2.8,11.5,7.7,12.3,15.6c1.4,14.9,3.1,29.7,4.7,44.6
			c0.3,2.8,0.2,5.7,0.9,8.5c1.6,6.3,5.9,9.5,11.4,9.1c5.6-0.4,9.4-4.2,9.5-10.9c0.1-8.9-0.3-17.8-1.1-26.6
			c-0.9-9.9-2.3-19.8-3.9-29.6c-1.1-6.3,1.1-10.6,5.4-15.1c13.3-14,28.8-23.9,47.4-29.4c17-5,30.5-16,43.7-27.8
			c25.2-22.5,51.6-43.6,76.7-66.3c11.5-10.4,21.4-22.8,31.1-35c7.6-9.6,6.4-13.7-3.1-21.4c-15.6-12.5-33.7-18-53.3-19.3
			C443.7,116.4,438.7,116.7,433.7,116.7z M290.7,299.4c-1.8-4.1-3.3-6.5-4-9.1c-3.3-11.3-6.1-22.7-9.6-33.8
			c-1.9-5.9-1.5-11.2,1.3-16.5c10-19.2,20-38.4,30.2-57.5c1.7-3.2,4.4-6,7.9-10.5c2.5,4.8,4.3,7.7,5.6,10.8
			c7.1,17.3,10.7,35.5,10.8,54.1c0.1,7.8-2.3,16.3-5.8,23.4C319.2,276.1,305.7,287.4,290.7,299.4z M271.4,109
			c13.7,12.9,23.7,26.2,33.4,39.8c4.5,6.3,4.2,11.7,0.2,18.5c-11.2,18.9-21.6,38.4-32.4,57.6c-1,1.7-2.2,3.3-3.5,5.2
			c-1.4-1.3-2.4-1.8-2.8-2.6c-7.2-15.4-14.2-31-21.6-46.3c-2.4-5-1.7-9.4,0.4-14.2c6.7-14.9,13.2-29.9,19.8-44.9
			C266.7,118.4,268.6,114.7,271.4,109z M255.2,233.5c-2.5-0.2-3.6-0.1-4.5-0.4c-22.9-6.3-45.8-12.8-68.7-18.9
			c-5.4-1.4-8.5-4.6-10.6-9.4c-5.4-12-11.1-23.8-16.5-35.8c-0.9-2-1.1-4.4-1.9-7.4c3.5,0,6-0.5,8.3,0.1
			c21.7,5.1,43.5,10.2,65.1,15.8c3,0.8,6.2,3.9,7.6,6.8c7.2,14.6,13.9,29.5,20.7,44.3C255.2,229.7,255,231.2,255.2,233.5z
			 M235.2,159.7c-2.9-3.8-4.4-5.7-5.7-7.7c-8.3-12.4-16.6-24.8-24.8-37.2c-4.9-7.3-12.7-14.2-13.9-22.1s4-16.9,6.4-25.4
			c0.4-1.4,0.9-2.7,1.4-4c2.7-6.1,5-7.3,10.6-3.5c15.8,10.9,31.4,22.1,46.7,33.7c5.8,4.4,5.8,7.7,2.6,15.1
			c-5.5,12.7-11.2,25.3-16.9,37.9C239.9,150.3,238,154,235.2,159.7z M221.6,161.3c-4.8,0-6.9,0.3-8.9-0.1
			c-20.2-4.1-40.3-8.5-60.5-12.5c-4.9-1-7.4-3.6-8.9-7.9c-3.9-11.1-8-22-11.7-33.1c-2.6-7.7-0.9-9.8,6.9-9.7
			c6,0.1,12.1,0.7,18.1,0.3c15.2-1,27,4.6,35.3,17.4c4.5,6.8,9,13.6,13.5,20.5C210.4,144,215.3,151.7,221.6,161.3z M185.5,227.2
			c15.7-0.6,57.9,13.9,72.8,21.6c5,2.6,6.8,7,8.2,11.8c2.5,8.5,4.9,17.1,7.4,25.6c1,3.6,2.1,7.1,3.3,11
			C246.6,297.4,190.6,254.4,185.5,227.2z M427.6,214.3c-7.3,10-22.6,23.9-31,27c-5.5,2-11.7,2.8-17.6,3.1
			c-5.6,0.2-11.2-1.2-16.9-1.4c-4.8-0.2-7.4-2-7.3-7c0.1-2.8-0.1-5.7,0.4-8.5c2.4-13.2,13.6-25.2,24.3-24.8
			C395.9,203.2,411.9,206.5,427.6,214.3z M426,128.9c-2.1,8.6-4,16-5.6,23.5c-1.4,6.3-4.8,10.7-10.6,13.7
			c-7.5,3.9-14.8,8.4-22.2,12.5c-1.9,1-4.2,1.4-8.4,2.7c2-13.9,3.5-26.1,5.5-38.2c0.9-5.5,4.2-10,9.8-11.6
			C403.9,128.7,413.6,126.9,426,128.9z M353.2,202.7c-5.1-13.7-10.3-27.1-15.1-40.7c-0.6-1.8,0.4-5,1.7-6.7
			c3.9-5,24.1-13.6,32.3-13.7c-1.7,15.9-2.8,31.7-5.2,47.4C365.9,195.5,361.2,200.9,353.2,202.7z M462.1,185.8
			C452.9,201,443,205.2,427,201c-9.6-2.5-19.2-5-28.8-7.5c-1.8-0.5-3.6-1.1-5.6-1.8C406.3,170.3,446.3,167.4,462.1,185.8z
			 M135.2,35.8c0.3-0.9,0.6-1.7,0.8-2.6c17.2,2.1,33.8,6.4,49.2,14.9c1.8,1,3.8,4.1,3.5,5.9c-1.6,9.3-4.3,18.2-9.9,27.1
			C163.6,65.3,149.4,50.5,135.2,35.8z M120.8,41.6c13.2,7.4,40.9,36.3,43.5,44.8c-11.3,0-22.5,0.3-33.7-0.2c-2.1-0.1-5.5-2.8-6-4.9
			C121.3,68.7,118.6,56,120.8,41.6z M434.3,154.2c-1.1-7.3-1-7.8,2.5-17.7c2.9-8.2,4.1-9.8,12.2-8.4c10.8,1.8,21.4,4.9,32,7.8
			c2.4,0.6,4.3,2.9,7.4,5.1C469.5,145.6,452.3,149.8,434.3,154.2z M447.7,165c0-1,0-1.9-0.1-2.9c12.2-2.9,24.4-6,36.7-8.6
			c1.6-0.3,4.4,1,5.2,2.4c0.8,1.3,0.4,4.3-0.7,5.6c-3.2,3.8-7,7-10.4,10.6c-3.1,3.4-6.5,3.9-10.5,2.1
			C461.2,171.1,454.5,168,447.7,165z M379.4,256.5c-6.9,9-19.3,16.5-32.5,19.5C341.7,260,359.3,250.5,379.4,256.5z"/>
		
			<linearGradient id="SVGID_1_" gradientUnits="userSpaceOnUse" x1="113.9792" y1="433.5898" x2="483.9001" y2="433.5898" gradientTransform="matrix(-1 0 0 -1 604 599.8898)">
			<stop  offset="0" style="stop-color:#347631"/>
			<stop  offset="1" style="stop-color:#93C35C"/>
		</linearGradient>
		<path class="st1" d="M290.7,299.4c15-12,28.4-23.3,36.3-39.2c3.5-7.1,5.9-15.6,5.8-23.4c-0.2-18.5-3.7-36.8-10.8-54.1
			c-1.3-3.1-3.1-6-5.6-10.8c-3.4,4.5-6.1,7.3-7.9,10.5c-10.2,19.1-20.2,38.3-30.2,57.5c-2.7,5.3-3.2,10.6-1.3,16.5
			c3.6,11.2,6.4,22.6,9.6,33.8C287.5,292.9,288.9,295.3,290.7,299.4z M304.8,148.9c4.5,6.3,4.2,11.7,0.2,18.5
			c-11.2,18.9-21.6,38.4-32.4,57.6c-1,1.7-2.2,3.3-3.5,5.2c-1.4-1.3-2.4-1.8-2.8-2.6c-7.2-15.4-14.2-31-21.6-46.3
			c-2.4-5-1.7-9.4,0.4-14.2c6.7-14.9,13.2-29.9,19.8-44.9c1.7-3.8,3.7-7.5,6.4-13.1C285.1,122,295.1,135.3,304.8,148.9z
			 M250.6,233.1c-22.9-6.3-45.8-12.8-68.7-18.9c-5.4-1.4-8.5-4.6-10.6-9.4c-5.4-12-11.1-23.8-16.5-35.8c-0.9-2-1.1-4.4-1.9-7.4
			c3.5,0,6-0.5,8.3,0.1c21.7,5.1,43.5,10.2,65.1,15.8c3,0.8,6.2,3.9,7.6,6.8c7.2,14.6,13.9,29.5,20.7,44.3c0.5,1.1,0.3,2.6,0.5,4.9
			C252.7,233.3,251.6,233.4,250.6,233.1z M229.5,152c-8.3-12.4-16.6-24.8-24.8-37.2c-4.9-7.3-12.7-14.2-13.9-22.1s4-16.9,6.4-25.4
			c0.4-1.4,0.9-2.7,1.4-4c2.7-6.1,5-7.3,10.6-3.5c15.8,10.9,31.4,22.1,46.7,33.7c5.8,4.4,5.8,7.7,2.6,15.1
			c-5.5,12.7-11.2,25.3-16.9,37.9c-1.7,3.8-3.6,7.4-6.4,13.1C232.3,155.8,230.8,154,229.5,152z M212.7,161.2
			c-20.2-4.1-40.3-8.5-60.5-12.5c-4.9-1-7.4-3.6-8.9-7.9c-3.9-11.1-8-22-11.7-33.1c-2.6-7.7-0.9-9.8,6.9-9.7
			c6,0.1,12.1,0.7,18.1,0.3c15.2-1,27,4.6,35.3,17.4c4.5,6.8,9,13.6,13.5,20.5c5,7.7,10,15.3,16.2,25
			C216.8,161.3,214.7,161.6,212.7,161.2z M258.2,248.8c5,2.6,6.8,7,8.2,11.8c2.5,8.5,4.9,17.1,7.4,25.6c1,3.6,2.1,7.1,3.3,11
			c-30.6,0.2-86.6-42.8-91.7-70C201.2,226.6,243.4,241.2,258.2,248.8z M396.6,241.3c-5.5,2-11.7,2.8-17.6,3.1
			c-5.6,0.2-11.2-1.2-16.9-1.4c-4.8-0.2-7.4-2-7.3-7c0.1-2.8-0.1-5.7,0.4-8.5c2.4-13.2,13.6-25.2,24.3-24.8
			c16.4,0.6,32.3,3.9,48.1,11.7C420.3,224.4,405,238.2,396.6,241.3z M420.4,152.3c-1.4,6.3-4.8,10.7-10.6,13.7
			c-7.5,3.9-14.8,8.4-22.2,12.5c-1.9,1-4.2,1.4-8.4,2.7c2-13.9,3.5-26.1,5.5-38.2c0.9-5.5,4.2-10,9.8-11.6
			c9.5-2.7,19.2-4.5,31.6-2.5C423.9,137.5,422,144.9,420.4,152.3z M338.1,161.9c-0.6-1.8,0.4-5,1.7-6.7c3.9-5,24.1-13.6,32.3-13.7
			c-1.7,15.9-2.8,31.7-5.2,47.4c-1,6.6-5.7,12-13.7,13.8C348,189,342.8,175.6,338.1,161.9z M427,201c-9.6-2.5-19.2-5-28.8-7.5
			c-1.8-0.5-3.6-1.1-5.6-1.8c13.7-21.5,53.8-24.4,69.6-6C452.9,201,443,205.2,427,201z M136.1,33.2c17.2,2.1,33.8,6.4,49.2,14.9
			c1.8,1,3.8,4.1,3.5,5.9c-1.6,9.3-4.3,18.2-9.9,27.1c-15.2-15.8-29.4-30.5-43.6-45.3C135.5,34.9,135.8,34.1,136.1,33.2z
			 M164.3,86.4c-11.3,0-22.5,0.3-33.7-0.2c-2.1-0.1-5.5-2.8-6-4.9c-3.2-12.6-5.9-25.3-3.7-39.7C134.1,49,161.7,77.9,164.3,86.4z
			 M436.7,136.5c2.9-8.2,4.1-9.8,12.2-8.4c10.8,1.8,21.4,4.9,32,7.8c2.4,0.6,4.3,2.9,7.4,5.1c-18.9,4.6-36,8.8-54,13.2
			C433.2,146.9,433.3,146.4,436.7,136.5z M447.7,162.1c12.2-2.9,24.4-6,36.7-8.6c1.6-0.3,4.4,1,5.2,2.4c0.8,1.3,0.4,4.3-0.7,5.6
			c-3.2,3.8-7,7-10.4,10.6c-3.1,3.4-6.5,3.9-10.5,2.1c-6.7-3.1-13.5-6.1-20.2-9.1C447.7,164,447.7,163.1,447.7,162.1z M346.9,276.1
			c-5.1-16,12.4-25.5,32.5-19.5C372.5,265.6,360,273,346.9,276.1z"/>
	</g>
</g>
</svg>
