<?xml version="1.0" encoding="utf-8"?>
<!-- Generator: Adobe Illustrator 26.0.0, SVG Export Plug-In . SVG Version: 6.00 Build 0)  -->
<svg version="1.1" id="Camada_1" xmlns:serif="http://www.serif.com/"
	 xmlns="http://www.w3.org/2000/svg" xmlns:xlink="http://www.w3.org/1999/xlink" x="0px" y="0px" viewBox="0 0 456 456"
	 style="enable-background:new 0 0 456 456;" xml:space="preserve">
<style type="text/css">
	.st0{fill:#FFFFFF;}
	.st1{fill:url(#SVGID_1_);}
</style>
<g>
	<g>
		<path class="st0" d="M120.8,348.7c0,4.2,1,6.9,2.7,8.1s5.6,1.8,11.6,1.8c8.7,0,15.7-2.3,20.6-6.9c4.9-4.6,7.9-11.5,8.7-20.5h6.9
			l-2,33.5H88v-6c4.5-0.4,7.4-1.2,8.6-2.3c1.2-1.2,2-3.7,2-7.6v-54.4c0-3.9-0.7-6.4-2-7.6c-1.2-1.2-4.2-2-8.6-2.3v-6h43.3v6
			c-4.4,0.4-7.2,1.2-8.6,2.2c-1.2,1.2-2,3.7-2,7.7L120.8,348.7L120.8,348.7L120.8,348.7z"/>
		<path class="st0" d="M237.4,332.9h-38.8c0,0.5,0,1.2-0.1,1.7c0,0.7,0,1.6,0,2.7c0,7.8,1.1,13.6,3.4,17.2c2.3,3.7,5.7,5.5,10.6,5.5
			c3.7,0,7.1-1.2,10.4-3.5c3.3-2.3,6-5.7,8.3-10.2l5.9,2c-2.6,6.1-6.3,10.7-11,13.7c-4.8,3-10.8,4.6-17.8,4.6c-4.1,0-8-0.7-11.7-2.1
			c-3.5-1.4-6.8-3.4-9.7-6c-3.3-3.1-5.9-6.6-7.5-11c-1.8-4.2-2.6-8.7-2.6-13.7c0-9.6,2.9-17.6,8.7-23.6c5.9-6.1,13.3-9.1,22.6-9.1
			c8.9,0,15.9,2.9,21.4,8.5c5.4,5.6,8.2,13.2,8.2,22.4L237.4,332.9L237.4,332.9z M198.4,327.4h18.7v-1c0-7.2-0.7-12.1-2.2-15.3
			c-1.5-3.1-3.8-4.6-7.1-4.6s-5.6,1.4-6.9,4.4C199.4,314,198.6,319.4,198.4,327.4z"/>
		<path class="st0" d="M284.2,356.6c-3.7,3.3-7.4,5.7-11,7.4c-3.7,1.7-7.4,2.5-11,2.5c-5,0-9.1-1.4-12.4-4.4
			c-3.3-3-4.9-6.8-4.9-11.3c0-6.5,3.1-11.5,9.4-15.1c6.3-3.7,15.8-5.9,28.6-6.9v-8.5c0-5.3-0.8-9-2.6-11s-4.8-3-9-3
			c-1.9,0-3.5,0.3-4.9,0.8s-2,1.2-2,1.7c0,0,0.1,0.3,0.4,0.7c0.1,0.3,0.3,0.3,0.3,0.4l1.8,2.6c0.4,0.5,0.7,1.2,0.8,2
			c0.3,0.8,0.3,1.6,0.3,2.5c0,2.3-1,4.2-2.7,5.7c-1.8,1.6-4.2,2.2-7.1,2.2c-3,0-5.3-0.8-7.2-2.5c-1.8-1.6-2.7-3.8-2.7-6.3
			c0-4.4,2.5-8,7.4-10.8c4.9-2.9,11.2-4.3,18.9-4.3c9.4,0,16.3,2,20.8,5.6s6.7,9.6,6.7,17.7V354c0,1,0.3,2,0.5,2.5
			c0.4,0.5,1,0.8,1.9,0.8c0.5,0,1.4-0.3,2.3-0.7c1-0.4,1.8-0.7,2-0.7c0.5,0,1,0.3,1.2,0.7c0.4,0.4,0.5,0.9,0.5,1.3
			c0,1.7-1.5,3.4-4.5,5.2c-3,1.7-6.1,2.6-9.5,2.6c-3.1,0-5.6-0.8-7.6-2.2C287,362.2,285.5,359.9,284.2,356.6z M283,333.8
			c-6.4,0.9-11.2,2.5-14.3,4.8s-4.8,5.3-4.8,9.3c0,2.6,0.8,4.7,2.3,6.1s3.7,2.2,6.4,2.2c3.5,0,6.3-1.3,8-4c1.8-2.7,2.6-6.9,2.6-12.6
			c0-0.7,0-1.4,0-2.2C283.2,336.7,283.2,335.5,283,333.8z"/>
		<path class="st0" d="M341.2,350.9c0,3.1,0.5,5.2,1.5,6.5s2.7,1.8,5,1.8h3.8v5.5h-36v-5.5c2.6-0.4,4.4-1,5.2-2.2
			c0.8-1,1.2-3.1,1.2-6.1v-37.4h-7.4v-5.6h7.4c0-0.3,0-0.8,0-1.4s0-1.2,0-1.4c0-10,2.5-17.7,7.2-23.1c4.8-5.3,11.7-8.1,20.6-8.1
			c5.4,0,9.9,1.2,13.2,3.7c3.3,2.5,5,5.7,5,9.6c0,2.6-0.8,4.7-2.6,6.3c-1.8,1.6-4.1,2.2-6.9,2.2c-2.6,0-4.5-0.7-5.9-2s-2-3.1-2-5.5
			c0-0.8,0.1-1.7,0.4-2.3c0.3-0.8,0.5-1.3,1.1-1.8l1.4-1.6c0.3-0.3,0.4-0.5,0.4-0.8c0.1-0.3,0.1-0.5,0.1-0.8c0-0.5-0.4-1-1.1-1.4
			c-0.8-0.5-1.6-0.7-2.6-0.7c-3.1,0-5.3,1.3-6.8,3.9s-2.2,6.8-2.2,12.5v12.5h15.1v5.6H341v37.6H341.2z"/>
	</g>
	<g>
		<path d="M299.8,123.8c-17.8-0.3-34.3,4.4-49.7,12.6c-5.2,2.7-5.9,2.6-9.3-2c-15.7-22.2-35.8-39.8-60.7-52.3
			c-14.8-7.4-30.1-13.3-47.4-12.6c-10.6,0.4-12.3,2-13.2,12.1c-1.5,17.6,3.8,34,9.8,50.2c7.4,20.1,17,39.1,27.4,57.8
			c8.6,15.5,22.9,25.3,38.9,32.6c4.8,2.2,9.7,4.3,14.7,6c4.1,1.4,6.1,3.9,6.5,8c0.8,7.7,1.6,15.3,2.6,22.9c0.1,1.4,0.1,2.9,0.5,4.4
			c0.8,3.3,3.1,4.8,6.1,4.7c3-0.3,5-2.2,5-5.6c0-4.6-0.1-9.1-0.5-13.7c-0.5-5.1-1.2-10.2-2-15.3c-0.5-3.3,0.5-5.5,2.9-7.8
			c7.1-7.2,15.5-12.3,25.5-15.1c9.1-2.6,16.3-8.2,23.4-14.3c13.5-11.6,27.6-22.4,41.1-34c6.1-5.3,11.4-11.7,16.8-18
			c4.1-5,3.4-7-1.6-11c-8.3-6.4-18.1-9.3-28.6-9.9C305.2,123.6,302.5,123.8,299.8,123.8z M223.1,217.6c-1-2.1-1.8-3.4-2.2-4.7
			c-1.8-5.9-3.3-11.6-5.2-17.3c-1-3-0.8-5.7,0.7-8.5c5.3-9.9,10.8-19.7,16.2-29.6c1-1.7,2.3-3.1,4.2-5.3c1.4,2.5,2.3,3.9,3,5.6
			c3.8,8.9,5.7,18.3,5.9,27.8c0,4-1.2,8.3-3.1,12C238.4,205.8,231.1,211.5,223.1,217.6z M212.6,119.8c7.4,6.6,12.7,13.4,18,20.5
			c2.5,3.3,2.3,6,0.1,9.5c-6,9.6-11.6,19.7-17.4,29.6c-0.5,0.9-1.2,1.7-1.9,2.6c-0.8-0.7-1.2-0.9-1.5-1.3c-3.8-8-7.6-15.9-11.6-23.7
			c-1.2-2.6-1-4.8,0.3-7.3c3.5-7.7,7.1-15.4,10.6-23.1C210.2,124.7,211.1,122.7,212.6,119.8z M204,183.9c-1.4-0.1-1.9,0-2.5-0.3
			c-12.3-3.3-24.6-6.5-36.9-9.6c-2.9-0.8-4.6-2.3-5.7-4.8c-2.9-6.1-6-12.3-8.9-18.4c-0.5-1-0.5-2.2-1-3.8c1.9,0,3.3-0.3,4.5,0
			c11.7,2.6,23.3,5.2,35,8.1c1.6,0.4,3.3,2,4.1,3.5c3.8,7.6,7.5,15.1,11.2,22.8C204,181.9,203.9,182.7,204,183.9z M193.3,145.9
			c-1.5-2-2.3-2.9-3-3.9c-4.5-6.4-8.9-12.8-13.3-19.2c-2.6-3.8-6.8-7.3-7.5-11.3s2.2-8.7,3.4-13c0.3-0.8,0.5-1.4,0.8-2.1
			c1.5-3.1,2.7-3.8,5.7-1.8c8.4,5.6,16.9,11.3,25.1,17.3c3.1,2.2,3.1,3.9,1.4,7.8c-3,6.5-6,13-9.1,19.4
			C195.7,141.1,194.8,142.9,193.3,145.9z M185.9,146.7c-2.6,0-3.7,0.1-4.8,0c-10.9-2.1-21.7-4.4-32.4-6.4c-2.6-0.5-3.9-1.8-4.8-4
			c-2-5.7-4.4-11.3-6.3-16.9c-1.4-3.9-0.5-5.1,3.7-5c3.3,0,6.5,0.4,9.7,0.1c8.2-0.5,14.4,2.3,18.9,9c2.5,3.5,4.8,7,7.2,10.6
			C179.9,137.8,182.5,141.8,185.9,146.7z M166.6,180.6c8.4-0.3,31.1,7.2,39.1,11.1c2.7,1.3,3.7,3.7,4.4,6.1
			c1.4,4.4,2.6,8.7,3.9,13.2c0.5,1.8,1.1,3.7,1.8,5.6C199.4,216.7,169.3,194.6,166.6,180.6z M296.5,174
			c-3.9,5.1-12.1,12.3-16.6,13.8c-3,1-6.3,1.4-9.4,1.6c-3,0.1-6-0.7-9.1-0.8c-2.6-0.1-3.9-1-3.9-3.7c0-1.4,0-2.9,0.3-4.4
			c1.2-6.8,7.4-12.9,13.1-12.8C279.5,168.2,288.1,169.9,296.5,174z M295.7,130c-1.1,4.4-2.2,8.2-3,12.1c-0.8,3.3-2.6,5.5-5.7,7
			c-4.1,2-7.9,4.3-11.8,6.4c-1,0.5-2.3,0.8-4.5,1.4c1.1-7.2,1.9-13.4,3-19.7c0.5-2.9,2.3-5.1,5.3-6C283.8,130,289,129.1,295.7,130z
			 M256.6,168c-2.7-7-5.6-13.9-8.2-20.9c-0.3-0.9,0.3-2.6,1-3.4c2-2.6,12.9-7,17.3-7c-1,8.2-1.5,16.3-2.7,24.4
			C263.4,164.3,260.8,167,256.6,168z M315,159.4c-4.9,7.8-10.2,9.9-18.8,7.8c-5.2-1.3-10.4-2.6-15.5-3.9c-1-0.3-1.9-0.5-3-0.9
			C285.1,151.4,306.6,149.8,315,159.4z M139.6,82.2c0.1-0.5,0.3-0.9,0.4-1.3c9.3,1,18.1,3.3,26.4,7.7c1,0.5,2,2.1,1.9,3
			c-0.8,4.8-2.3,9.4-5.3,13.9C154.9,97.4,147.2,89.7,139.6,82.2z M131.9,85.2c7.1,3.8,21.9,18.6,23.3,23.1c-6.1,0-12.1,0.1-18.1-0.1
			c-1.1,0-3-1.4-3.3-2.5C132.1,99.1,130.6,92.6,131.9,85.2z M300.2,143.1c-0.5-3.8-0.5-4,1.4-9.1c1.5-4.2,2.2-5.1,6.5-4.3
			c5.9,0.9,11.4,2.5,17.2,4c1.2,0.3,2.3,1.4,3.9,2.6C319,138.6,309.7,140.8,300.2,143.1z M307.3,148.7c0-0.5,0-0.9,0-1.4
			c6.5-1.4,13.1-3.1,19.7-4.4c0.8-0.1,2.3,0.5,2.7,1.2c0.4,0.7,0.3,2.2-0.4,2.9c-1.8,2-3.8,3.7-5.6,5.5c-1.6,1.7-3.5,2-5.6,1
			C314.6,151.8,310.9,150.2,307.3,148.7z M270.6,195.6c-3.7,4.6-10.4,8.5-17.4,10C250.5,197.4,259.9,192.6,270.6,195.6z"/>
		
			<linearGradient id="SVGID_1_" gradientUnits="userSpaceOnUse" x1="-995.934" y1="957.2501" x2="-797.2952" y2="957.2501" gradientTransform="matrix(-1 0 0 1 -666 -808.0001)">
			<stop  offset="0" style="stop-color:#347631"/>
			<stop  offset="1" style="stop-color:#93C35C"/>
		</linearGradient>
		<path class="st1" d="M223.1,217.6c8-6.1,15.3-12,19.5-20.2c1.9-3.7,3.1-8,3.1-12c-0.1-9.5-2-18.9-5.9-27.8c-0.7-1.6-1.6-3.1-3-5.6
			c-1.8,2.3-3.3,3.8-4.2,5.3c-5.4,9.8-10.9,19.7-16.2,29.6c-1.5,2.7-1.8,5.5-0.7,8.5c1.9,5.7,3.4,11.6,5.2,17.3
			C221.3,214.4,222,215.5,223.1,217.6z M230.6,140.3c2.5,3.3,2.3,6,0.1,9.5c-6,9.6-11.6,19.7-17.4,29.6c-0.5,0.9-1.2,1.7-1.9,2.6
			c-0.8-0.7-1.2-0.9-1.5-1.3c-3.8-8-7.6-15.9-11.6-23.7c-1.2-2.6-1-4.8,0.3-7.3c3.5-7.7,7.1-15.4,10.6-23.1c1-2,2-3.9,3.4-6.8
			C220,126.5,225.4,133.4,230.6,140.3z M201.4,183.6c-12.3-3.3-24.6-6.5-36.9-9.6c-2.9-0.8-4.6-2.3-5.7-4.8
			c-2.9-6.1-6-12.3-8.9-18.4c-0.5-1-0.5-2.2-1-3.8c1.9,0,3.3-0.3,4.5,0c11.7,2.6,23.3,5.2,35,8.1c1.6,0.4,3.3,2,4.1,3.5
			c3.8,7.6,7.5,15.1,11.2,22.8c0.3,0.5,0.1,1.3,0.3,2.5C202.7,183.7,202,183.7,201.4,183.6z M190.1,141.9
			c-4.5-6.4-8.9-12.8-13.3-19.2c-2.6-3.8-6.8-7.3-7.5-11.3s2.2-8.7,3.4-13c0.3-0.8,0.5-1.4,0.8-2.1c1.5-3.1,2.7-3.8,5.7-1.8
			c8.4,5.6,16.9,11.3,25.1,17.3c3.1,2.2,3.1,3.9,1.4,7.8c-3,6.5-6,13-9.1,19.4c-1,2-1.9,3.8-3.4,6.8
			C191.6,143.8,190.8,142.9,190.1,141.9z M181.2,146.7c-10.9-2.1-21.7-4.4-32.4-6.4c-2.6-0.5-3.9-1.8-4.8-4
			c-2-5.7-4.4-11.3-6.3-16.9c-1.4-3.9-0.5-5.1,3.7-5c3.3,0,6.5,0.4,9.7,0.1c8.2-0.5,14.4,2.3,18.9,9c2.5,3.5,4.8,7,7.2,10.6
			c2.7,3.9,5.3,7.8,8.7,12.9C183.3,146.7,182.2,146.8,181.2,146.7z M205.5,191.7c2.7,1.3,3.7,3.7,4.4,6.1c1.4,4.4,2.6,8.7,3.9,13.2
			c0.5,1.8,1.1,3.7,1.8,5.6c-16.5,0.1-46.4-22-49.2-36C175,180.2,197.6,187.8,205.5,191.7z M279.9,187.8c-3,1-6.3,1.4-9.4,1.6
			c-3,0.1-6-0.7-9.1-0.8c-2.6-0.1-3.9-1-3.9-3.7c0-1.4,0-2.9,0.3-4.4c1.2-6.8,7.4-12.9,13.1-12.8c8.9,0.3,17.3,2,25.9,6
			C292.6,179.2,284.4,186.2,279.9,187.8z M292.7,142.1c-0.8,3.3-2.6,5.5-5.7,7c-4.1,2-7.9,4.3-11.8,6.4c-1,0.5-2.3,0.8-4.5,1.4
			c1.1-7.2,1.9-13.4,3-19.7c0.5-2.9,2.3-5.1,5.3-6c5-1.4,10.4-2.3,17-1.3C294.6,134.4,293.5,138.2,292.7,142.1z M248.4,147
			c-0.3-0.9,0.3-2.6,1-3.4c2-2.6,12.9-7,17.3-7c-1,8.2-1.5,16.3-2.7,24.4c-0.5,3.4-3,6.1-7.4,7C253.7,160.9,251,154,248.4,147z
			 M296.2,167.2c-5.2-1.3-10.4-2.6-15.5-3.9c-1-0.3-1.9-0.5-3-0.9c7.4-11.1,28.9-12.5,37.3-3.1C310.1,167.2,304.8,169.3,296.2,167.2
			z M140,80.9c9.3,1,18.1,3.3,26.4,7.7c1,0.5,2,2.1,1.9,3c-0.8,4.8-2.3,9.4-5.3,13.9c-8.2-8.1-15.8-15.6-23.4-23.3
			C139.8,81.8,139.9,81.4,140,80.9z M155.1,108.2c-6.1,0-12.1,0.1-18.1-0.1c-1.1,0-3-1.4-3.3-2.5c-1.8-6.5-3.1-13-2-20.3
			C138.9,89.1,153.8,103.8,155.1,108.2z M301.4,133.9c1.5-4.2,2.2-5.1,6.5-4.3c5.9,0.9,11.4,2.5,17.2,4c1.2,0.3,2.3,1.4,3.9,2.6
			c-10.1,2.3-19.3,4.6-29,6.8C299.5,139.3,299.6,139,301.4,133.9z M307.3,147.1c6.5-1.4,13.1-3.1,19.7-4.4c0.8-0.1,2.3,0.5,2.7,1.2
			c0.4,0.7,0.3,2.2-0.4,2.9c-1.8,2-3.8,3.7-5.6,5.5c-1.6,1.7-3.5,2-5.6,1c-3.5-1.6-7.2-3.1-10.9-4.7
			C307.3,148.1,307.3,147.6,307.3,147.1z M253.2,205.8c-2.7-8.2,6.7-13.2,17.4-10C266.9,200.3,260.3,204.1,253.2,205.8z"/>
	</g>
</g>
</svg>
